<svg width="294" height="320" viewBox="0 0 294 320" fill="none" xmlns="http://www.w3.org/2000/svg">
<path d="M140.942 0.652816C124.849 9.17905 116.341 14.4832 111.409 34.3676L154.746 32.4808C142.946 21.7376 139.631 14.8459 140.942 0.652816Z" fill="url(#paint0_linear_8_24)"/>
<path d="M177.434 6.99926C162.113 11.2793 153.85 14.242 145.617 30.7336L182.56 37.7293C174.806 25.9306 173.421 19.2117 177.434 6.99926Z" fill="url(#paint1_radial_8_24)"/>
<ellipse cx="147" cy="173.5" rx="147" ry="146.5" fill="url(#paint2_radial_8_24)"/>
<circle cx="83" cy="135" r="32" fill="white"/>
<circle cx="206" cy="135" r="32" fill="white"/>
<ellipse cx="89" cy="132" rx="18" ry="17" fill="#D9D9D9"/>
<ellipse cx="89" cy="132" rx="18" ry="17" fill="#3F3FD6"/>
<ellipse cx="198" cy="132" rx="18" ry="17" fill="#3F3FD6"/>
<rect x="97" y="186" width="101" height="4" fill="black"/>
<path d="M121.869 207.003C114.003 202.958 109.825 200.403 107 190.13L127.676 190C122.316 195.923 120.904 199.613 121.869 207.003Z" fill="white"/>
<path d="M168.869 207.503C169.445 201.049 168.717 197.291 164 190.13L184.676 190C181.951 197.611 178.851 201.525 168.869 207.503Z" fill="white"/>
<path d="M101 190H107V248C107 249.657 105.657 251 104 251V251C102.343 251 101 249.657 101 248V190Z" fill="#B4E5F0"/>
<circle cx="104" cy="262" r="3" fill="#B4E5F0"/>
<ellipse cx="85" cy="125.5" rx="4" ry="3.5" fill="white"/>
<ellipse cx="76.5" cy="131" rx="2.5" ry="2" fill="white"/>
<ellipse cx="185.5" cy="132" rx="2.5" ry="2" fill="white"/>
<ellipse cx="192" cy="125.5" rx="4" ry="3.5" fill="white"/>
<defs>
<linearGradient id="paint0_linear_8_24" x1="138.5" y1="34" x2="119.5" y2="-29.5" gradientUnits="userSpaceOnUse">
<stop offset="0.037889" stop-color="#4DC739"/>
<stop offset="0.57865" stop-color="#809F26" stop-opacity="0"/>
</linearGradient>

</defs>
</svg>
